<?xml version="1.0" encoding="UTF-8" standalone="no"?><!DOCTYPE svg PUBLIC "-//W3C//DTD SVG 1.1//EN" "http://www.w3.org/Graphics/SVG/1.1/DTD/svg11.dtd"><svg width="100%" height="100%" viewBox="0 0 212 321" version="1.1" xmlns="http://www.w3.org/2000/svg" xmlns:xlink="http://www.w3.org/1999/xlink" xml:space="preserve" xmlns:serif="http://www.serif.com/" style="fill-rule:evenodd;clip-rule:evenodd;stroke-linejoin:round;stroke-miterlimit:2;"><path d="M0,159.913c5.754,-0.75 11.65,-1.558 17.604,-1.954c14.071,-0.929 27.646,-3.942 40.287,-10.383c15.938,-8.125 26.796,-20.671 32.513,-37.696c3.696,-11 6.058,-22.271 7.7,-33.733c1.517,-10.612 1.954,-21.296 2.45,-31.979c0.383,-8.204 0.954,-16.396 1.333,-24.6c0.304,-6.563 1.687,-12.904 3.508,-19.179c0.038,-0.125 0.113,-0.246 0.179,-0.388c1.954,6.163 3.308,12.396 3.654,18.833c0.438,8.162 0.917,16.329 1.325,24.496c0.358,6.992 0.596,13.996 1.154,20.979c0.479,6.025 1.412,11.987 2.296,17.954c1.454,9.792 3.908,19.325 7.142,28.667c6.108,17.65 17.925,30.088 34.717,37.904c10.054,4.675 20.671,7.421 31.708,8.55c7.75,0.792 15.538,1.242 23.246,2.467c0.133,0.025 0.267,0.046 0.4,0.117c-5.067,0.554 -10.083,1.483 -15.187,1.779c-14.55,0.842 -28.662,3.608 -41.833,10.121c-16.462,8.138 -27.667,20.867 -33.512,38.354c-3.758,11.242 -6.117,22.754 -7.75,34.467c-1.388,9.929 -1.796,19.917 -2.279,29.908c-0.471,9.792 -1.025,19.575 -1.675,29.35c-0.325,4.942 -1.525,9.733 -2.942,14.471c-0.146,0.488 -0.263,0.983 -0.475,1.792c-0.771,-3.621 -1.946,-6.825 -2.55,-10.196c-1.158,-6.442 -1.287,-12.967 -1.633,-19.475c-0.396,-7.442 -0.783,-14.888 -1.146,-22.329c-0.279,-5.583 -0.533,-11.167 -1.167,-16.725c-1.692,-14.908 -4.275,-29.625 -9.496,-43.771c-6.567,-17.804 -18.95,-29.992 -36.154,-37.483c-9.483,-4.133 -19.421,-6.625 -29.708,-7.704c-7.958,-0.833 -15.967,-1.162 -23.708,-2.612Z" style="fill:#d4b87a;fill-rule:nonzero;"/></svg>